<svg xmlns="http://www.w3.org/2000/svg" xmlns:xlink="http://www.w3.org/1999/xlink" version="1.1" id="Your_Icon" x="0px" y="0px" width="100px" height="100px" viewBox="0 0 100 100" enable-background="new 0 0 100 100" xml:space="preserve">
<g>
	<g>
		<g>
			<g>
			</g>
		</g>
		<g>
		</g>
	</g>
</g>
<g>
	<path d="M58.405,76.402H41.628c-1.453,0-2.631,1.198-2.631,2.674v0.119c0,1.476,1.178,2.674,2.631,2.674h16.777   c1.452,0,2.631-1.198,2.631-2.674v-0.119C61.036,77.601,59.857,76.402,58.405,76.402z"/>
	<path d="M79.179,53.612l-2.53-1.246c-1.304-0.643-2.89-0.088-3.542,1.236l-0.052,0.106c-0.653,1.324-0.125,2.919,1.179,3.561   l2.531,1.246c1.304,0.642,2.889,0.088,3.54-1.236l0.054-0.106C81.01,55.849,80.481,54.254,79.179,53.612z"/>
	<path d="M84.671,39.787c-0.026-1.476-1.225-2.653-2.678-2.628l-2.82,0.049c-1.452,0.026-2.609,1.243-2.583,2.719l0.002,0.118   c0.024,1.477,1.224,2.653,2.676,2.628l2.821-0.049c1.452-0.025,2.609-1.243,2.583-2.719L84.671,39.787z"/>
	<path d="M73.057,26.561c0.678,1.312,2.273,1.834,3.563,1.167l2.507-1.295c1.29-0.667,1.787-2.271,1.109-3.583l-0.055-0.105   c-0.678-1.312-2.274-1.834-3.564-1.167l-2.507,1.295c-1.29,0.667-1.786,2.271-1.108,3.583L73.057,26.561z"/>
	<path d="M63.249,16.7l0.101,0.063c1.248,0.788,2.89,0.43,3.664-0.798l1.505-2.386c0.775-1.229,0.392-2.863-0.857-3.651   l-0.101-0.063c-1.248-0.788-2.89-0.431-3.664,0.798l-1.506,2.386C61.616,14.278,62,15.913,63.249,16.7z"/>
	<path d="M49.847,13.247h0.118c1.477-0.003,2.671-1.184,2.667-2.637l-0.006-2.821c-0.004-1.453-1.203-2.627-2.679-2.624h-0.12   c-1.477,0.003-2.671,1.184-2.667,2.637l0.006,2.822C47.171,12.076,48.371,13.251,49.847,13.247z"/>
	<path d="M58.26,84.717H41.483c-1.452,0-2.63,1.197-2.63,2.674v0.119c0,1.476,1.178,2.673,2.63,2.673h0.747   c0.347,3.003,3.767,4.652,7.729,4.652c3.963,0,7.381-1.649,7.729-4.652h0.572c1.453,0,2.63-1.197,2.63-2.673v-0.119   C60.89,85.914,59.713,84.717,58.26,84.717z"/>
	<path d="M64.845,23.606c-12.646-10.908-25.066-3.523-26.516-2.617c0,0-19.013,11.251-6.104,33.405   c1.196,2.608,5.844,10.466,6.501,18.926h22.632c0,0,0.076-7.44,6.017-17.879C73.479,44.713,75.001,32.51,64.845,23.606z    M62.315,52.824c-4.711,8.548-6.019,15.001-6.019,15.001h-12.56c-1.221-5.843-5.408-13.343-6.367-15.437   c-10.641-17.924,3.431-26.253,3.431-26.253c1.163-0.727,10.495-7.093,20.643,1.657C68.899,35.25,67.025,44.277,62.315,52.824z"/>
	<path d="M26.894,53.603c-0.653-1.324-2.238-1.879-3.542-1.236l-2.531,1.246c-1.303,0.642-1.831,2.236-1.179,3.561l0.053,0.106   c0.652,1.324,2.237,1.878,3.541,1.236l2.531-1.246c1.304-0.642,1.832-2.236,1.179-3.561L26.894,53.603z"/>
	<path d="M23.409,40.045l0.001-0.118c0.026-1.477-1.13-2.693-2.583-2.719l-2.821-0.049c-1.453-0.025-2.65,1.152-2.676,2.628   l-0.002,0.119c-0.026,1.476,1.131,2.693,2.584,2.719l2.821,0.049C22.185,42.698,23.384,41.521,23.409,40.045z"/>
	<path d="M25.89,22.873l-2.507-1.295c-1.291-0.667-2.886-0.144-3.564,1.167l-0.055,0.105c-0.678,1.312-0.181,2.916,1.109,3.583   l2.507,1.295c1.29,0.667,2.886,0.145,3.564-1.167l0.055-0.105C27.677,25.144,27.18,23.54,25.89,22.873z"/>
	<path d="M32.987,15.965c0.774,1.229,2.415,1.586,3.664,0.798l0.101-0.063c1.249-0.788,1.632-2.422,0.858-3.651l-1.505-2.386   c-0.775-1.229-2.417-1.586-3.665-0.798l-0.1,0.063c-1.249,0.788-1.634,2.422-0.858,3.651L32.987,15.965z"/>
</g>
</svg>