<svg xmlns="http://www.w3.org/2000/svg" xmlns:xlink="http://www.w3.org/1999/xlink" version="1.1" id="Your_Icon" x="0px" y="0px" width="100px" height="100px" viewBox="0 0 100 100" enable-background="new 0 0 100 100" xml:space="preserve">
<g>
	<path d="M58.404,76.402H41.628c-1.453,0-2.631,1.197-2.631,2.674v0.119c0,1.476,1.178,2.674,2.631,2.674h16.776   c1.453,0,2.632-1.198,2.632-2.674v-0.119C61.036,77.602,59.857,76.402,58.404,76.402z"/>
	<path d="M58.26,84.717H41.483c-1.452,0-2.63,1.197-2.63,2.674v0.119c0,1.477,1.178,2.674,2.63,2.674h0.747   c0.347,3.002,3.767,4.651,7.729,4.651c3.963,0,7.381-1.649,7.729-4.651h0.572c1.453,0,2.631-1.197,2.631-2.674v-0.119   C60.891,85.914,59.713,84.717,58.26,84.717z"/>
	<path d="M64.846,23.606c-12.646-10.908-25.067-3.523-26.517-2.617c0,0-19.013,11.251-6.104,33.405   c1.196,2.607,5.844,10.465,6.501,18.926h22.631c0,0,0.076-7.44,6.018-17.879C73.479,44.713,75.001,32.51,64.846,23.606z    M62.314,52.824c-4.711,8.548-6.019,15.001-6.019,15.001H53.25v-15.57l5.788-7.551c0.57-0.745,0.083-2.078-1.089-2.975   l-0.095-0.073c-1.171-0.898-2.585-1.023-3.155-0.278l-4.352,5.678l-4.735-6.178c-0.571-0.745-1.984-0.62-3.156,0.278l-0.095,0.073   c-1.171,0.897-1.659,2.23-1.088,2.975l6.51,8.494v15.128h-4.047c-1.221-5.843-5.408-13.343-6.367-15.437   C26.728,34.464,40.8,26.135,40.8,26.135c1.163-0.727,10.495-7.093,20.644,1.657C68.898,35.25,67.025,44.277,62.314,52.824z"/>
</g>
</svg>