<svg xmlns="http://www.w3.org/2000/svg" xmlns:xlink="http://www.w3.org/1999/xlink" version="1.1" id="Layer_1" x="0px" y="0px" viewBox="0 0 100 100" enable-background="new 0 0 100 100" xml:space="preserve" height="100px" width="100px">
<path d="M96.6,30.3c-3.8,6-11.2,7.4-17.7,7.2c-1.4,0-3.4-0.2-5.3-0.7c1.2-1.8,1.7-4,1.2-6.5c-1.1-5.6-7.7-4.1-8.6,0.7  c-0.6,3,0.7,5.1,2.8,6.5c-2.7,1.6-6.6,1.9-9.4,2.1c-5,0.4-9.5-0.4-14.3-2c-4.5-1.5-13.2-6.2-16.9-0.6c-0.2,0.3-0.4,0.7-0.6,1.1  c-2.7,0-5.5,0.4-7.4,0.6c-6.9,0.6-12.6-4.4-17.2-9c-1.3-1.3-3.3,0.7-2,2c4,4,8.6,7.9,14.1,9.5c0.9,0.3,1.9,0.4,2.9,0.4L18,42.5  c-2.3,0.3-4.5,2-5.3,6c-1,5.1,1.8,14.3,3.3,14.6c1.5,0.3,7.5-7.2,8.5-12.4c0.7-3.7-0.4-6-2.2-7.2l0.4-1.9c0,0,0-0.1,0-0.1  c1.4-0.2,2.7-0.4,4-0.5c0,0,0,0,0.1,0c-0.7,2.9-0.3,5.9,2.8,7.1c2.9,1.1,6.6-1.5,6.2-4.6c-0.4-3-2.4-4.4-4.9-5  c2.3-2.8,8.1,0,10.7,0.9c0.2,0.1,0.4,0.1,0.6,0.2c0,0.1-0.1,0.2-0.1,0.3l-0.3,2.2c-2.4,0.6-4.4,2.6-4.5,6.9  c-0.1,5.2,4.2,13.8,5.8,13.8c1.6,0,6.1-8.4,6.2-13.7c0.1-3.6-1.3-5.6-3.1-6.6l0.2-1.7c4.2,1.2,8.4,1.8,12.6,1.7c0,0.2,0,0.4,0.1,0.5  l0.6,1.7c-1.8,1.3-2.8,3.8-1.8,7.5c1.4,5.1,7.9,12.1,9.4,11.7c1.5-0.4,3.6-9.8,2.2-14.8c-1-3.8-3.3-5.4-5.6-5.6l-0.5-1.4  c1.2-0.2,2.4-0.4,3.6-0.8c1.8-0.5,3.4-1.3,4.7-2.3c2.1,0.8,4.4,1.2,6.2,1.3c1.5,0.1,2.9,0.2,4.4,0.1l-0.1,1.8  c-2.3,0.6-4.2,2.6-4.3,6.7c-0.2,5.2,3.9,13.9,5.5,14c1.6,0.1,6.3-8.3,6.5-13.5c0.1-3.7-1.3-5.8-3.3-6.8l0.1-2.3c0-0.2,0-0.3,0-0.5  c4.1-0.9,7.9-2.9,10.9-6.1c0.6-0.6,1.1-1.3,1.5-1.9C100,30.2,97.6,28.8,96.6,30.3z M13.3,52.2c-0.7-7.4,4.7-8.8,4.7-8.8  C13.8,46.8,13.3,52.2,13.3,52.2z M32.8,43.3c0.7,1.1-0.4,1.8-1.3,2.1c-2.7,0.8-2.4-2.1-1.7-4.3C30.9,41.3,32,42,32.8,43.3z   M38.1,50.4c-0.5-7,5.1-7.6,5.1-7.6C39.1,45.3,38.1,50.4,38.1,50.4z M59.1,53.5c-2.9-6.1,2.3-8.7,2.3-8.7  C58,48.4,59.1,53.5,59.1,53.5z M71.1,35.8c-1.2-0.8-2.1-1.8-2.2-3.4c-0.3-3.7,3.2-3.5,3.4,0C72.3,33.7,71.8,34.8,71.1,35.8z   M79.5,54c-2.4-7.4,2.1-10.7,2.1-10.7C79,47.3,79.5,54,79.5,54z"/>
</svg>